<mxfile host="app.diagrams.net" modified="2024-01-15T11:21:53.163Z" agent="Mozilla/5.0 (Windows NT 10.0; Win64; x64) AppleWebKit/537.36 (KHTML, like Gecko) Chrome/120.0.0.0 Safari/537.36" etag="NPlSzVlLdFEt8_uaVOu-" version="22.1.18" type="device">
  <diagram name="Page-1" id="OR-g--Jy4ziLgFqy0DBM">
    <mxGraphModel dx="1434" dy="746" grid="1" gridSize="10" guides="1" tooltips="1" connect="1" arrows="1" fold="1" page="1" pageScale="1" pageWidth="850" pageHeight="1100" math="0" shadow="0">
      <root>
        <mxCell id="0" />
        <mxCell id="1" parent="0" />
        <mxCell id="VDD-oyWbqmoNmLFnAKqk-3" style="edgeStyle=orthogonalEdgeStyle;rounded=0;orthogonalLoop=1;jettySize=auto;html=1;exitX=1;exitY=1;exitDx=0;exitDy=0;entryX=1;entryY=0.5;entryDx=0;entryDy=0;curved=1;" edge="1" parent="1" source="VDD-oyWbqmoNmLFnAKqk-1" target="VDD-oyWbqmoNmLFnAKqk-2">
          <mxGeometry relative="1" as="geometry">
            <Array as="points">
              <mxPoint x="478" y="280" />
              <mxPoint x="540" y="280" />
              <mxPoint x="540" y="390" />
            </Array>
          </mxGeometry>
        </mxCell>
        <mxCell id="VDD-oyWbqmoNmLFnAKqk-1" value="CheckGC" style="ellipse;whiteSpace=wrap;html=1;aspect=fixed;" vertex="1" parent="1">
          <mxGeometry x="410" y="190" width="80" height="80" as="geometry" />
        </mxCell>
        <mxCell id="VDD-oyWbqmoNmLFnAKqk-5" style="edgeStyle=orthogonalEdgeStyle;rounded=0;orthogonalLoop=1;jettySize=auto;html=1;exitX=0;exitY=0.5;exitDx=0;exitDy=0;entryX=0;entryY=1;entryDx=0;entryDy=0;curved=1;" edge="1" parent="1" source="VDD-oyWbqmoNmLFnAKqk-2" target="VDD-oyWbqmoNmLFnAKqk-1">
          <mxGeometry relative="1" as="geometry">
            <Array as="points">
              <mxPoint x="340" y="390" />
              <mxPoint x="340" y="280" />
              <mxPoint x="422" y="280" />
            </Array>
          </mxGeometry>
        </mxCell>
        <mxCell id="VDD-oyWbqmoNmLFnAKqk-2" value="GCstep" style="ellipse;whiteSpace=wrap;html=1;aspect=fixed;" vertex="1" parent="1">
          <mxGeometry x="410" y="350" width="80" height="80" as="geometry" />
        </mxCell>
        <mxCell id="VDD-oyWbqmoNmLFnAKqk-4" value="新增GC object内存总量超过阈值" style="rounded=0;whiteSpace=wrap;html=1;" vertex="1" parent="1">
          <mxGeometry x="550" y="300" width="120" height="60" as="geometry" />
        </mxCell>
        <mxCell id="VDD-oyWbqmoNmLFnAKqk-6" style="edgeStyle=orthogonalEdgeStyle;rounded=0;orthogonalLoop=1;jettySize=auto;html=1;exitX=0;exitY=0.5;exitDx=0;exitDy=0;entryX=1;entryY=0.5;entryDx=0;entryDy=0;curved=1;" edge="1" parent="1" source="VDD-oyWbqmoNmLFnAKqk-1" target="VDD-oyWbqmoNmLFnAKqk-1">
          <mxGeometry relative="1" as="geometry">
            <Array as="points">
              <mxPoint x="390" y="230" />
              <mxPoint x="390" y="130" />
              <mxPoint x="510" y="130" />
              <mxPoint x="510" y="230" />
            </Array>
          </mxGeometry>
        </mxCell>
        <mxCell id="VDD-oyWbqmoNmLFnAKqk-7" value="新增GC object内存总量未超过阈值" style="rounded=0;whiteSpace=wrap;html=1;" vertex="1" parent="1">
          <mxGeometry x="390" y="60" width="120" height="60" as="geometry" />
        </mxCell>
        <mxCell id="VDD-oyWbqmoNmLFnAKqk-8" value="" style="shape=flexArrow;endArrow=classic;html=1;rounded=0;" edge="1" parent="1">
          <mxGeometry width="50" height="50" relative="1" as="geometry">
            <mxPoint x="290" y="240" as="sourcePoint" />
            <mxPoint x="390" y="240" as="targetPoint" />
          </mxGeometry>
        </mxCell>
        <mxCell id="VDD-oyWbqmoNmLFnAKqk-9" value="新增对象，函数调用时进行" style="text;strokeColor=none;align=center;fillColor=none;html=1;verticalAlign=middle;whiteSpace=wrap;rounded=0;" vertex="1" parent="1">
          <mxGeometry x="180" y="220" width="100" height="30" as="geometry" />
        </mxCell>
      </root>
    </mxGraphModel>
  </diagram>
</mxfile>
